<svg width="1865" height="1024" viewBox="0 0 1865 1024" fill="none" xmlns="http://www.w3.org/2000/svg">
<g clip-path="url(#clip0_27_2)">
<rect width="1865" height="1024" fill="white"/>
<circle cx="2281.5" cy="1669.5" r="741.5" fill="url(#paint0_radial_27_2)"/>
<line x1="114" y1="558.75" x2="1752" y2="558.75" stroke="#E2E2E2" stroke-width="0.5"/>
<line x1="114" y1="578.75" x2="1752" y2="578.75" stroke="#E2E2E2" stroke-width="0.5"/>
<line x1="-32" y1="638.75" x2="1606" y2="638.75" stroke="#E2E2E2" stroke-width="0.5"/>
<line x1="-32" y1="658.75" x2="1606" y2="658.75" stroke="#E2E2E2" stroke-width="0.5"/>
<line x1="-32" y1="658.75" x2="1606" y2="658.75" stroke="#E2E2E2" stroke-width="0.5"/>
<line x1="-32" y1="678.75" x2="1606" y2="678.75" stroke="#E2E2E2" stroke-width="0.5"/>
<line x1="-32" y1="698.75" x2="1606" y2="698.75" stroke="#E2E2E2" stroke-width="0.5"/>
<line x1="-32" y1="738.75" x2="1606" y2="738.75" stroke="#E2E2E2" stroke-width="0.5"/>
<line x1="-32" y1="758.75" x2="1606" y2="758.75" stroke="#E2E2E2" stroke-width="0.5"/>
<line x1="-32" y1="778.75" x2="1606" y2="778.75" stroke="#E2E2E2" stroke-width="0.5"/>
<line x1="-32" y1="798.75" x2="1606" y2="798.75" stroke="#E2E2E2" stroke-width="0.5"/>
<line x1="-32" y1="818.75" x2="1606" y2="818.75" stroke="#E2E2E2" stroke-width="0.5"/>
<line x1="-32" y1="838.75" x2="1606" y2="838.75" stroke="#E2E2E2" stroke-width="0.5"/>
<line x1="-32" y1="858.75" x2="1606" y2="858.75" stroke="#E2E2E2" stroke-width="0.5"/>
<line x1="-32" y1="878.75" x2="1606" y2="878.75" stroke="#E2E2E2" stroke-width="0.5"/>
<line x1="-32" y1="898.75" x2="1606" y2="898.75" stroke="#E2E2E2" stroke-width="0.5"/>
<line x1="-32" y1="918.75" x2="1606" y2="918.75" stroke="#E2E2E2" stroke-width="0.5"/>
<line x1="1056.75" y1="1128" x2="1056.75" y2="1.09278e-08" stroke="#E2E2E2" stroke-width="0.5"/>
<path d="M1086.75 1128L1086.75 0" stroke="#E2E2E2" stroke-width="0.5"/>
<line x1="1116.75" y1="1128" x2="1116.75" y2="1.09278e-08" stroke="#E2E2E2" stroke-width="0.5"/>
<path d="M1146.75 1128L1146.75 0" stroke="#E2E2E2" stroke-width="0.5"/>
<line x1="1176.75" y1="1128" x2="1176.75" y2="1.09278e-08" stroke="#E2E2E2" stroke-width="0.5"/>
<path d="M1206.75 1128L1206.75 0" stroke="#E2E2E2" stroke-width="0.5"/>
<line x1="1236.75" y1="1128" x2="1236.75" y2="1.09278e-08" stroke="#E2E2E2" stroke-width="0.5"/>
<path d="M1266.75 1128L1266.75 0" stroke="#E2E2E2" stroke-width="0.5"/>
<line x1="1296.75" y1="1128" x2="1296.75" y2="1.09278e-08" stroke="#E2E2E2" stroke-width="0.5"/>
<path d="M1326.75 1128L1326.75 0" stroke="#E2E2E2" stroke-width="0.5"/>
<line x1="1356.75" y1="1128" x2="1356.75" y2="1.09278e-08" stroke="#E2E2E2" stroke-width="0.5"/>
<path d="M1386.75 1128L1386.75 0" stroke="#E2E2E2" stroke-width="0.5"/>
<line x1="1416.75" y1="1128" x2="1416.75" y2="1.09278e-08" stroke="#E2E2E2" stroke-width="0.5"/>
<path d="M1446.75 1128L1446.75 0" stroke="#E2E2E2" stroke-width="0.5"/>
<line x1="1476.75" y1="1128" x2="1476.75" y2="1.09278e-08" stroke="#E2E2E2" stroke-width="0.5"/>
<path d="M1506.75 1128L1506.75 0" stroke="#E2E2E2" stroke-width="0.5"/>
<line x1="1536.75" y1="1128" x2="1536.75" y2="1.09278e-08" stroke="#E2E2E2" stroke-width="0.5"/>
<line x1="366.75" y1="1128" x2="366.75" y2="1.09278e-08" stroke="#E2E2E2" stroke-width="0.5"/>
<path d="M396.75 1128L396.75 0" stroke="#E2E2E2" stroke-width="0.5"/>
<line x1="426.75" y1="1128" x2="426.75" y2="1.09278e-08" stroke="#E2E2E2" stroke-width="0.5"/>
<path d="M456.75 1128L456.75 0" stroke="#E2E2E2" stroke-width="0.5"/>
<line x1="486.75" y1="1128" x2="486.75" y2="1.09278e-08" stroke="#E2E2E2" stroke-width="0.5"/>
<line x1="66.75" y1="1128" x2="66.75" y2="1.09278e-08" stroke="#E2E2E2" stroke-width="0.5"/>
<path d="M96.75 1128L96.75 0" stroke="#E2E2E2" stroke-width="0.5"/>
<line x1="126.75" y1="1128" x2="126.75" y2="1.09278e-08" stroke="#E2E2E2" stroke-width="0.5"/>
<path d="M156.75 1128L156.75 0" stroke="#E2E2E2" stroke-width="0.5"/>
<line x1="186.75" y1="1128" x2="186.75" y2="1.09278e-08" stroke="#E2E2E2" stroke-width="0.5"/>
<path d="M216.75 1128L216.75 0" stroke="#E2E2E2" stroke-width="0.5"/>
<line x1="336.75" y1="1128" x2="336.75" y2="1.09278e-08" stroke="#E2E2E2" stroke-width="0.5"/>
<path d="M366.75 1128L366.75 0" stroke="#E2E2E2" stroke-width="0.5"/>
<line x1="-32" y1="148.75" x2="1606" y2="148.75" stroke="#E2E2E2" stroke-width="0.5"/>
<line x1="-32" y1="168.75" x2="1606" y2="168.75" stroke="#E2E2E2" stroke-width="0.5"/>
<line x1="-32" y1="188.75" x2="1606" y2="188.75" stroke="#E2E2E2" stroke-width="0.5"/>
<line x1="-32" y1="208.75" x2="1606" y2="208.75" stroke="#E2E2E2" stroke-width="0.5"/>
<line x1="-32" y1="228.75" x2="1606" y2="228.75" stroke="#E2E2E2" stroke-width="0.5"/>
</g>
<defs>
<radialGradient id="paint0_radial_27_2" cx="0" cy="0" r="1" gradientUnits="userSpaceOnUse" gradientTransform="translate(2281.5 1669.5) rotate(90) scale(741.5)">
<stop stop-color="#2B67FF" stop-opacity="0.39"/>
<stop offset="1" stop-color="#2B66FB" stop-opacity="0"/>
</radialGradient>
<clipPath id="clip0_27_2">
<rect width="1865" height="1024" fill="white"/>
</clipPath>
</defs>
</svg>
