<svg width="1606" height="1099" viewBox="0 0 1606 1099" fill="none" xmlns="http://www.w3.org/2000/svg">
<rect width="1606" height="1099" fill="#4D4D4D"/>
<g clip-path="url(#clip0_0_1)">
<rect width="1606" height="1099" fill="#151515"/>
<line x1="-32" y1="518.75" x2="1606" y2="518.75" stroke="#262525" stroke-opacity="0.34" stroke-width="0.5"/>
<line x1="-32" y1="538.75" x2="1606" y2="538.75" stroke="#262525" stroke-opacity="0.34" stroke-width="0.5"/>
<line x1="-32" y1="558.75" x2="1606" y2="558.75" stroke="#262525" stroke-opacity="0.34" stroke-width="0.5"/>
<line x1="-32" y1="598.75" x2="1606" y2="598.75" stroke="#262525" stroke-opacity="0.34" stroke-width="0.5"/>
<line x1="-32" y1="618.75" x2="1606" y2="618.75" stroke="#262525" stroke-opacity="0.34" stroke-width="0.5"/>
<line x1="-32" y1="638.75" x2="1606" y2="638.75" stroke="#262525" stroke-opacity="0.34" stroke-width="0.5"/>
<line x1="-32" y1="658.75" x2="1606" y2="658.75" stroke="#262525" stroke-opacity="0.34" stroke-width="0.5"/>
<line x1="-32" y1="658.75" x2="1606" y2="658.75" stroke="#262525" stroke-opacity="0.34" stroke-width="0.5"/>
<line x1="-32" y1="678.75" x2="1606" y2="678.75" stroke="#262525" stroke-opacity="0.34" stroke-width="0.5"/>
<line x1="-32" y1="698.75" x2="1606" y2="698.75" stroke="#262525" stroke-opacity="0.34" stroke-width="0.5"/>
<line x1="-32" y1="738.75" x2="1606" y2="738.75" stroke="#262525" stroke-opacity="0.34" stroke-width="0.5"/>
<line x1="-32" y1="758.75" x2="1606" y2="758.75" stroke="#262525" stroke-opacity="0.34" stroke-width="0.5"/>
<line x1="-32" y1="778.75" x2="1606" y2="778.75" stroke="#262525" stroke-opacity="0.34" stroke-width="0.5"/>
<line x1="-32" y1="798.75" x2="1606" y2="798.75" stroke="#262525" stroke-opacity="0.34" stroke-width="0.5"/>
<line x1="-32" y1="818.75" x2="1606" y2="818.75" stroke="#262525" stroke-opacity="0.34" stroke-width="0.5"/>
<line x1="-32" y1="838.75" x2="1606" y2="838.75" stroke="#262525" stroke-opacity="0.34" stroke-width="0.5"/>
<line x1="-32" y1="858.75" x2="1606" y2="858.75" stroke="#262525" stroke-opacity="0.34" stroke-width="0.5"/>
<line x1="-32" y1="878.75" x2="1606" y2="878.75" stroke="#262525" stroke-opacity="0.34" stroke-width="0.5"/>
<line x1="-32" y1="898.75" x2="1606" y2="898.75" stroke="#262525" stroke-opacity="0.34" stroke-width="0.5"/>
<line x1="-32" y1="918.75" x2="1606" y2="918.75" stroke="#262525" stroke-opacity="0.34" stroke-width="0.5"/>
<line x1="-32" y1="938.75" x2="1606" y2="938.75" stroke="#262525" stroke-opacity="0.34" stroke-width="0.5"/>
<line x1="-32" y1="958.75" x2="1606" y2="958.75" stroke="#262525" stroke-opacity="0.34" stroke-width="0.5"/>
<line x1="-32" y1="958.75" x2="1606" y2="958.75" stroke="#262525" stroke-opacity="0.34" stroke-width="0.5"/>
<line x1="-32" y1="978.75" x2="1606" y2="978.75" stroke="#262525" stroke-opacity="0.34" stroke-width="0.5"/>
<line x1="-32" y1="998.75" x2="1606" y2="998.75" stroke="#262525" stroke-opacity="0.34" stroke-width="0.5"/>
<line x1="-32" y1="1018.75" x2="1606" y2="1018.75" stroke="#262525" stroke-opacity="0.34" stroke-width="0.5"/>
<line x1="-32" y1="1038.75" x2="1606" y2="1038.75" stroke="#262525" stroke-opacity="0.34" stroke-width="0.5"/>
<line x1="-32" y1="1058.75" x2="1606" y2="1058.75" stroke="#262525" stroke-opacity="0.34" stroke-width="0.5"/>
<line x1="-32" y1="1098.75" x2="1606" y2="1098.75" stroke="#615B5B" stroke-width="0.5"/>
<line x1="-32" y1="28.7501" x2="1606" y2="28.75" stroke="#262525" stroke-opacity="0.34" stroke-width="0.5"/>
<line x1="-32" y1="48.7501" x2="1606" y2="48.75" stroke="#262525" stroke-opacity="0.34" stroke-width="0.5"/>
<line x1="-32" y1="48.7501" x2="1606" y2="48.75" stroke="#262525" stroke-opacity="0.34" stroke-width="0.5"/>
<line x1="-32" y1="68.7501" x2="1606" y2="68.75" stroke="#262525" stroke-opacity="0.34" stroke-width="0.5"/>
<line x1="756.75" y1="1128" x2="756.75" y2="1.09278e-08" stroke="#262525" stroke-opacity="0.34" stroke-width="0.5"/>
<path d="M786.75 1128L786.75 0" stroke="#262525" stroke-opacity="0.34" stroke-width="0.5"/>
<line x1="816.75" y1="1128" x2="816.75" y2="1.09278e-08" stroke="#262525" stroke-opacity="0.34" stroke-width="0.5"/>
<path d="M846.75 1128L846.75 0" stroke="#262525" stroke-opacity="0.34" stroke-width="0.5"/>
<line x1="876.75" y1="1128" x2="876.75" y2="1.09278e-08" stroke="#262525" stroke-opacity="0.34" stroke-width="0.5"/>
<path d="M906.75 1128L906.75 0" stroke="#262525" stroke-opacity="0.34" stroke-width="0.5"/>
<line x1="936.75" y1="1128" x2="936.75" y2="1.09278e-08" stroke="#262525" stroke-opacity="0.34" stroke-width="0.5"/>
<path d="M966.75 1128L966.75 0" stroke="#262525" stroke-opacity="0.34" stroke-width="0.5"/>
<line x1="996.75" y1="1128" x2="996.75" y2="1.09278e-08" stroke="#262525" stroke-opacity="0.34" stroke-width="0.5"/>
<path d="M1026.75 1128L1026.75 0" stroke="#262525" stroke-opacity="0.34" stroke-width="0.5"/>
<line x1="1056.75" y1="1128" x2="1056.75" y2="1.09278e-08" stroke="#262525" stroke-opacity="0.34" stroke-width="0.5"/>
<path d="M1086.75 1128L1086.75 0" stroke="#262525" stroke-opacity="0.34" stroke-width="0.5"/>
<line x1="1116.75" y1="1128" x2="1116.75" y2="1.09278e-08" stroke="#262525" stroke-opacity="0.34" stroke-width="0.5"/>
<path d="M1146.75 1128L1146.75 0" stroke="#262525" stroke-opacity="0.34" stroke-width="0.5"/>
<line x1="1176.75" y1="1128" x2="1176.75" y2="1.09278e-08" stroke="#262525" stroke-opacity="0.34" stroke-width="0.5"/>
<path d="M1206.75 1128L1206.75 0" stroke="#262525" stroke-opacity="0.34" stroke-width="0.5"/>
<line x1="1236.75" y1="1128" x2="1236.75" y2="1.09278e-08" stroke="#262525" stroke-opacity="0.34" stroke-width="0.5"/>
<path d="M1266.75 1128L1266.75 0" stroke="#262525" stroke-opacity="0.34" stroke-width="0.5"/>
<line x1="1296.75" y1="1128" x2="1296.75" y2="1.09278e-08" stroke="#262525" stroke-opacity="0.34" stroke-width="0.5"/>
<path d="M1326.75 1128L1326.75 0" stroke="#262525" stroke-opacity="0.34" stroke-width="0.5"/>
<line x1="1356.75" y1="1128" x2="1356.75" y2="1.09278e-08" stroke="#262525" stroke-opacity="0.34" stroke-width="0.5"/>
<path d="M1386.75 1128L1386.75 0" stroke="#262525" stroke-opacity="0.34" stroke-width="0.5"/>
<line x1="1416.75" y1="1128" x2="1416.75" y2="1.09278e-08" stroke="#262525" stroke-opacity="0.34" stroke-width="0.5"/>
<path d="M1446.75 1128L1446.75 0" stroke="#262525" stroke-opacity="0.34" stroke-width="0.5"/>
<line x1="1476.75" y1="1128" x2="1476.75" y2="1.09278e-08" stroke="#262525" stroke-opacity="0.34" stroke-width="0.5"/>
<path d="M1506.75 1128L1506.75 0" stroke="#262525" stroke-opacity="0.34" stroke-width="0.5"/>
<path d="M1566.75 1128L1566.75 0" stroke="#262525" stroke-opacity="0.34" stroke-width="0.5"/>
<line x1="276.75" y1="1128" x2="276.75" y2="1.09278e-08" stroke="#262525" stroke-opacity="0.34" stroke-width="0.5"/>
<path d="M306.75 1128L306.75 0" stroke="#262525" stroke-opacity="0.34" stroke-width="0.5"/>
<line x1="336.75" y1="1128" x2="336.75" y2="1.09278e-08" stroke="#262525" stroke-opacity="0.34" stroke-width="0.5"/>
<path d="M366.75 1128L366.75 0" stroke="#262525" stroke-opacity="0.34" stroke-width="0.5"/>
<line x1="396.75" y1="1128" x2="396.75" y2="1.09278e-08" stroke="#262525" stroke-opacity="0.34" stroke-width="0.5"/>
<path d="M426.75 1128L426.75 0" stroke="#262525" stroke-opacity="0.34" stroke-width="0.5"/>
<line x1="456.75" y1="1128" x2="456.75" y2="1.09278e-08" stroke="#262525" stroke-opacity="0.34" stroke-width="0.5"/>
<path d="M486.75 1128L486.75 0" stroke="#262525" stroke-opacity="0.34" stroke-width="0.5"/>
<line x1="66.7501" y1="1128" x2="66.75" y2="1.09278e-08" stroke="#262525" stroke-opacity="0.34" stroke-width="0.5"/>
<path d="M96.7501 1128L96.75 0" stroke="#262525" stroke-opacity="0.34" stroke-width="0.5"/>
<line x1="126.75" y1="1128" x2="126.75" y2="1.09278e-08" stroke="#262525" stroke-opacity="0.34" stroke-width="0.5"/>
<path d="M156.75 1128L156.75 0" stroke="#262525" stroke-opacity="0.34" stroke-width="0.5"/>
<line x1="186.75" y1="1128" x2="186.75" y2="1.09278e-08" stroke="#262525" stroke-opacity="0.34" stroke-width="0.5"/>
<path d="M216.75 1128L216.75 0" stroke="#262525" stroke-opacity="0.34" stroke-width="0.5"/>
<line x1="246.75" y1="1128" x2="246.75" y2="1.09278e-08" stroke="#262525" stroke-opacity="0.34" stroke-width="0.5"/>
<path d="M276.75 1128L276.75 0" stroke="#262525" stroke-opacity="0.34" stroke-width="0.5"/>
<line x1="516.75" y1="1128" x2="516.75" y2="1.09278e-08" stroke="#262525" stroke-opacity="0.34" stroke-width="0.5"/>
<path d="M546.75 1128L546.75 0" stroke="#262525" stroke-opacity="0.34" stroke-width="0.5"/>
<line x1="576.75" y1="1128" x2="576.75" y2="1.09278e-08" stroke="#262525" stroke-opacity="0.34" stroke-width="0.5"/>
<path d="M606.75 1128L606.75 0" stroke="#262525" stroke-opacity="0.34" stroke-width="0.5"/>
<line x1="636.75" y1="1128" x2="636.75" y2="1.09278e-08" stroke="#262525" stroke-opacity="0.34" stroke-width="0.5"/>
<path d="M666.75 1128L666.75 0" stroke="#262525" stroke-opacity="0.34" stroke-width="0.5"/>
<line x1="696.75" y1="1128" x2="696.75" y2="1.09278e-08" stroke="#262525" stroke-opacity="0.34" stroke-width="0.5"/>
<path d="M726.75 1128L726.75 0" stroke="#262525" stroke-opacity="0.34" stroke-width="0.5"/>
<line x1="-32" y1="88.7501" x2="1606" y2="88.75" stroke="#262525" stroke-opacity="0.34" stroke-width="0.5"/>
<line x1="-32" y1="148.75" x2="1606" y2="148.75" stroke="#262525" stroke-opacity="0.34" stroke-width="0.5"/>
<line x1="-32" y1="168.75" x2="1606" y2="168.75" stroke="#262525" stroke-opacity="0.34" stroke-width="0.5"/>
<line x1="-32" y1="188.75" x2="1606" y2="188.75" stroke="#262525" stroke-opacity="0.34" stroke-width="0.5"/>
<line x1="-32" y1="208.75" x2="1606" y2="208.75" stroke="#262525" stroke-opacity="0.34" stroke-width="0.5"/>
<line x1="-32" y1="228.75" x2="1606" y2="228.75" stroke="#262525" stroke-opacity="0.34" stroke-width="0.5"/>
<line x1="-32" y1="268.75" x2="1606" y2="268.75" stroke="#262525" stroke-opacity="0.34" stroke-width="0.5"/>
<line x1="-32" y1="288.75" x2="1606" y2="288.75" stroke="#262525" stroke-opacity="0.34" stroke-width="0.5"/>
<line x1="-32" y1="308.75" x2="1606" y2="308.75" stroke="#262525" stroke-opacity="0.34" stroke-width="0.5"/>
<line x1="-32" y1="328.75" x2="1606" y2="328.75" stroke="#262525" stroke-opacity="0.34" stroke-width="0.5"/>
<line x1="-32" y1="348.75" x2="1606" y2="348.75" stroke="#262525" stroke-opacity="0.34" stroke-width="0.5"/>
<line x1="-32" y1="348.75" x2="1606" y2="348.75" stroke="#262525" stroke-opacity="0.34" stroke-width="0.5"/>
<line x1="-32" y1="368.75" x2="1606" y2="368.75" stroke="#262525" stroke-opacity="0.34" stroke-width="0.5"/>
<line x1="-32" y1="408.75" x2="1606" y2="408.75" stroke="#262525" stroke-opacity="0.34" stroke-width="0.5"/>
<line x1="-32" y1="428.75" x2="1606" y2="428.75" stroke="#262525" stroke-opacity="0.34" stroke-width="0.5"/>
<line x1="-32" y1="448.75" x2="1606" y2="448.75" stroke="#262525" stroke-opacity="0.34" stroke-width="0.5"/>
<line x1="-32" y1="468.75" x2="1606" y2="468.75" stroke="#262525" stroke-opacity="0.34" stroke-width="0.5"/>
<line x1="-32" y1="488.75" x2="1606" y2="488.75" stroke="#262525" stroke-opacity="0.34" stroke-width="0.5"/>
<g filter="url(#filter0_f_0_1)">
<ellipse cx="826.5" cy="482" rx="140.5" ry="21" fill="#38FFDB"/>
</g>
<g filter="url(#filter1_f_0_1)">
<ellipse cx="602.5" cy="482" rx="140.5" ry="21" fill="#DEDDDD" fill-opacity="0.58"/>
</g>
<g filter="url(#filter2_f_0_1)">
<ellipse cx="1077.5" cy="482" rx="140.5" ry="21" fill="#A7FF38" fill-opacity="0.63"/>
</g>
</g>
<defs>
<filter id="filter0_f_0_1" x="413" y="188" width="827" height="588" filterUnits="userSpaceOnUse" color-interpolation-filters="sRGB">
<feFlood flood-opacity="0" result="BackgroundImageFix"/>
<feBlend mode="normal" in="SourceGraphic" in2="BackgroundImageFix" result="shape"/>
<feGaussianBlur stdDeviation="136.5" result="effect1_foregroundBlur_0_1"/>
</filter>
<filter id="filter1_f_0_1" x="189" y="188" width="827" height="588" filterUnits="userSpaceOnUse" color-interpolation-filters="sRGB">
<feFlood flood-opacity="0" result="BackgroundImageFix"/>
<feBlend mode="normal" in="SourceGraphic" in2="BackgroundImageFix" result="shape"/>
<feGaussianBlur stdDeviation="136.5" result="effect1_foregroundBlur_0_1"/>
</filter>
<filter id="filter2_f_0_1" x="664" y="188" width="827" height="588" filterUnits="userSpaceOnUse" color-interpolation-filters="sRGB">
<feFlood flood-opacity="0" result="BackgroundImageFix"/>
<feBlend mode="normal" in="SourceGraphic" in2="BackgroundImageFix" result="shape"/>
<feGaussianBlur stdDeviation="136.5" result="effect1_foregroundBlur_0_1"/>
</filter>
<clipPath id="clip0_0_1">
<rect width="1606" height="1099" fill="white"/>
</clipPath>
</defs>
</svg>
