<svg width="1728" height="1117" viewBox="0 0 1728 1117" fill="none" xmlns="http://www.w3.org/2000/svg">
<g clip-path="url(#clip0_5_2)">
<rect width="1728" height="1117" fill="#010101"/>
<g filter="url(#filter0_f_5_2)">
<path d="M1812.43 225.628C1812.43 331.095 1595.35 419 1489.89 419C1384.43 419 1551.67 -111.014 1551.67 -216.481C1551.67 -321.948 1685.31 -5.4563 1790.77 -5.4563C1896.23 -5.4563 1812.43 120.16 1812.43 225.628Z" fill="#459BFF"/>
</g>
<g filter="url(#filter1_f_5_2)">
<path d="M195.431 594.628C195.431 700.095 -21.6464 788 -127.109 788C-232.571 788 -65.3287 257.986 -65.3287 152.519C-65.3287 47.0517 68.3056 363.544 173.768 363.544C279.23 363.544 195.431 489.16 195.431 594.628Z" fill="#FF9F45"/>
</g>
<g filter="url(#filter2_b_5_2)">
<rect width="1728" height="1106" fill="#D9D9D9" fill-opacity="0.02"/>
</g>
<line x1="496" y1="405.75" x2="1231" y2="405.75" stroke="#646464" stroke-width="0.5"/>
<line x1="496.25" y1="236" x2="496.25" y2="880" stroke="#646464" stroke-width="0.5"/>
<line x1="626.25" y1="236" x2="626.25" y2="880" stroke="#646464" stroke-width="0.5"/>
<line x1="766.25" y1="236" x2="766.25" y2="880" stroke="#646464" stroke-width="0.5"/>
<line x1="926.25" y1="236" x2="926.25" y2="880" stroke="#646464" stroke-width="0.5"/>
<line x1="1076.25" y1="236" x2="1076.25" y2="880" stroke="#646464" stroke-width="0.5"/>
<line x1="1226.25" y1="236" x2="1226.25" y2="880" stroke="#646464" stroke-width="0.5"/>
<line x1="496" y1="505.75" x2="1231" y2="505.75" stroke="#646464" stroke-width="0.5"/>
<line x1="496" y1="615.75" x2="1231" y2="615.75" stroke="#646464" stroke-width="0.5"/>
<line x1="496" y1="705.75" x2="1231" y2="705.75" stroke="#646464" stroke-width="0.5"/>
<line x1="496" y1="815.75" x2="1231" y2="815.75" stroke="#646464" stroke-width="0.5"/>
<line x1="496" y1="295.75" x2="1231" y2="295.75" stroke="#646464" stroke-width="0.5"/>
<g filter="url(#filter3_f_5_2)">
<rect x="334" y="76" width="1084" height="387" fill="url(#paint0_linear_5_2)"/>
</g>
<g filter="url(#filter4_f_5_2)">
<rect x="1433.93" y="1129.17" width="1084" height="387" transform="rotate(-179.355 1433.93 1129.17)" fill="url(#paint1_linear_5_2)"/>
</g>
<g filter="url(#filter5_f_5_2)">
<rect x="1529.49" y="117.604" width="1084" height="387" transform="rotate(90.2375 1529.49 117.604)" fill="url(#paint2_linear_5_2)"/>
</g>
<g filter="url(#filter6_f_5_2)">
<rect x="630.489" y="132.604" width="1084" height="387" transform="rotate(90.2375 630.489 132.604)" fill="url(#paint3_linear_5_2)"/>
</g>
</g>
<defs>
<filter id="filter0_f_5_2" x="1311" y="-382" width="677" height="945" filterUnits="userSpaceOnUse" color-interpolation-filters="sRGB">
<feFlood flood-opacity="0" result="BackgroundImageFix"/>
<feBlend mode="normal" in="SourceGraphic" in2="BackgroundImageFix" result="shape"/>
<feGaussianBlur stdDeviation="72" result="effect1_foregroundBlur_5_2"/>
</filter>
<filter id="filter1_f_5_2" x="-306" y="-13" width="677" height="945" filterUnits="userSpaceOnUse" color-interpolation-filters="sRGB">
<feFlood flood-opacity="0" result="BackgroundImageFix"/>
<feBlend mode="normal" in="SourceGraphic" in2="BackgroundImageFix" result="shape"/>
<feGaussianBlur stdDeviation="72" result="effect1_foregroundBlur_5_2"/>
</filter>
<filter id="filter2_b_5_2" x="-154" y="-154" width="2036" height="1414" filterUnits="userSpaceOnUse" color-interpolation-filters="sRGB">
<feFlood flood-opacity="0" result="BackgroundImageFix"/>
<feGaussianBlur in="BackgroundImageFix" stdDeviation="77"/>
<feComposite in2="SourceAlpha" operator="in" result="effect1_backgroundBlur_5_2"/>
<feBlend mode="normal" in="SourceGraphic" in2="effect1_backgroundBlur_5_2" result="shape"/>
</filter>
<filter id="filter3_f_5_2" x="70" y="-188" width="1612" height="915" filterUnits="userSpaceOnUse" color-interpolation-filters="sRGB">
<feFlood flood-opacity="0" result="BackgroundImageFix"/>
<feBlend mode="normal" in="SourceGraphic" in2="BackgroundImageFix" result="shape"/>
<feGaussianBlur stdDeviation="132" result="effect1_foregroundBlur_5_2"/>
</filter>
<filter id="filter4_f_5_2" x="86" y="466" width="1616.28" height="927.17" filterUnits="userSpaceOnUse" color-interpolation-filters="sRGB">
<feFlood flood-opacity="0" result="BackgroundImageFix"/>
<feBlend mode="normal" in="SourceGraphic" in2="BackgroundImageFix" result="shape"/>
<feGaussianBlur stdDeviation="132" result="effect1_foregroundBlur_5_2"/>
</filter>
<filter id="filter5_f_5_2" x="874" y="-148" width="919.489" height="1613.59" filterUnits="userSpaceOnUse" color-interpolation-filters="sRGB">
<feFlood flood-opacity="0" result="BackgroundImageFix"/>
<feBlend mode="normal" in="SourceGraphic" in2="BackgroundImageFix" result="shape"/>
<feGaussianBlur stdDeviation="132" result="effect1_foregroundBlur_5_2"/>
</filter>
<filter id="filter6_f_5_2" x="-24.9999" y="-133" width="919.489" height="1613.59" filterUnits="userSpaceOnUse" color-interpolation-filters="sRGB">
<feFlood flood-opacity="0" result="BackgroundImageFix"/>
<feBlend mode="normal" in="SourceGraphic" in2="BackgroundImageFix" result="shape"/>
<feGaussianBlur stdDeviation="132" result="effect1_foregroundBlur_5_2"/>
</filter>
<linearGradient id="paint0_linear_5_2" x1="876" y1="76" x2="876" y2="463" gradientUnits="userSpaceOnUse">
<stop/>
<stop offset="1" stop-color="#0E0E0E"/>
</linearGradient>
<linearGradient id="paint1_linear_5_2" x1="1975.93" y1="1129.17" x2="1975.93" y2="1516.17" gradientUnits="userSpaceOnUse">
<stop/>
<stop offset="1" stop-color="#0E0E0E"/>
</linearGradient>
<linearGradient id="paint2_linear_5_2" x1="2071.49" y1="117.604" x2="2071.49" y2="504.604" gradientUnits="userSpaceOnUse">
<stop/>
<stop offset="1" stop-color="#0E0E0E"/>
</linearGradient>
<linearGradient id="paint3_linear_5_2" x1="1172.49" y1="132.604" x2="1172.49" y2="519.604" gradientUnits="userSpaceOnUse">
<stop/>
<stop offset="1" stop-color="#0E0E0E"/>
</linearGradient>
<clipPath id="clip0_5_2">
<rect width="1728" height="1117" fill="white"/>
</clipPath>
</defs>
</svg>
