<svg width="531" height="531" viewBox="0 0 531 531" fill="none" xmlns="http://www.w3.org/2000/svg">
<g filter="url(#filter0_f_29_18)">
<circle cx="265.5" cy="265.5" r="99.5" fill="#7EFFD1" fill-opacity="0.41"/>
</g>
<path d="M274.013 332L263.356 306.96C273.621 303.168 283.232 298.068 292.124 292.119L274.013 332ZM225.042 268.648L200 257.991L239.883 239.881C233.934 248.773 228.834 258.383 225.042 268.648ZM313.831 213.076C315.662 213.076 317.296 213.076 318.669 213.403C319.781 222.49 318.539 241.189 297.093 262.633C285.978 273.813 272.705 282.377 257.798 288.065L243.741 274.336C249.756 259.233 258.321 245.961 269.371 234.912C287.417 216.868 303.501 213.076 313.831 213.076ZM313.831 200C300.885 200 281.271 204.511 260.087 225.694C245.768 240.012 237.203 255.768 231.645 269.563C229.814 274.467 231.057 279.828 234.653 283.489L248.579 297.349C251.064 299.834 254.398 301.337 257.864 301.337C259.367 301.337 260.937 300.945 262.44 300.357C276.432 294.996 291.993 286.235 306.312 271.917C343.319 234.912 329.458 202.55 329.458 202.55C329.458 202.55 323.508 200 313.831 200ZM283.232 248.773C278.132 243.673 278.132 235.37 283.232 230.27C288.332 225.171 296.635 225.171 301.735 230.27C306.77 235.37 306.835 243.673 301.735 248.773C296.635 253.872 288.332 253.872 283.232 248.773ZM228.964 330.758L252.764 306.96C250.541 306.371 248.383 305.391 246.422 304.018L219.746 330.758H228.964ZM201.242 330.758H210.461L241.649 299.637L232.364 290.419L201.242 321.539V330.758ZM201.242 312.256L227.984 285.581C226.611 283.62 225.63 281.527 225.042 279.239L201.242 303.037V312.256Z" fill="#93F9FF"/>
<defs>
<filter id="filter0_f_29_18" x="0" y="0" width="531" height="531" filterUnits="userSpaceOnUse" color-interpolation-filters="sRGB">
<feFlood flood-opacity="0" result="BackgroundImageFix"/>
<feBlend mode="normal" in="SourceGraphic" in2="BackgroundImageFix" result="shape"/>
<feGaussianBlur stdDeviation="83" result="effect1_foregroundBlur_29_18"/>
</filter>
</defs>
</svg>
