<svg width="984" height="724" viewBox="0 0 984 724" fill="none" xmlns="http://www.w3.org/2000/svg">
<path d="M206.915 339.392C206.506 335.267 204.75 332.062 201.648 329.778C198.545 327.494 194.335 326.352 189.017 326.352C185.403 326.352 182.352 326.864 179.864 327.886C177.375 328.875 175.466 330.256 174.136 332.028C172.841 333.801 172.193 335.812 172.193 338.062C172.125 339.938 172.517 341.574 173.369 342.972C174.256 344.369 175.466 345.58 177 346.602C178.534 347.591 180.307 348.46 182.318 349.21C184.33 349.926 186.477 350.54 188.761 351.051L198.17 353.301C202.739 354.324 206.932 355.687 210.75 357.392C214.568 359.097 217.875 361.193 220.67 363.682C223.466 366.17 225.631 369.102 227.165 372.477C228.733 375.852 229.534 379.722 229.568 384.085C229.534 390.494 227.898 396.051 224.659 400.756C221.455 405.426 216.818 409.057 210.75 411.648C204.716 414.205 197.438 415.483 188.915 415.483C180.46 415.483 173.097 414.188 166.824 411.597C160.585 409.006 155.71 405.17 152.199 400.091C148.722 394.977 146.898 388.653 146.727 381.119H168.153C168.392 384.631 169.398 387.562 171.17 389.915C172.977 392.233 175.381 393.989 178.381 395.182C181.415 396.341 184.841 396.92 188.659 396.92C192.409 396.92 195.665 396.375 198.426 395.284C201.222 394.193 203.386 392.676 204.92 390.733C206.455 388.79 207.222 386.557 207.222 384.034C207.222 381.682 206.523 379.705 205.125 378.102C203.761 376.5 201.75 375.136 199.091 374.011C196.466 372.886 193.244 371.864 189.426 370.943L178.023 368.08C169.193 365.932 162.222 362.574 157.108 358.006C151.994 353.437 149.455 347.284 149.489 339.545C149.455 333.205 151.142 327.665 154.551 322.926C157.994 318.188 162.716 314.489 168.716 311.83C174.716 309.17 181.534 307.841 189.17 307.841C196.943 307.841 203.727 309.17 209.523 311.83C215.352 314.489 219.886 318.188 223.125 322.926C226.364 327.665 228.034 333.153 228.136 339.392H206.915ZM259.547 414L238.172 335.455H260.212L272.382 388.227H273.098L285.78 335.455H307.411L320.297 387.92H320.962L332.928 335.455H354.916L333.592 414H310.53L297.03 364.602H296.058L282.558 414H259.547ZM366.537 414V335.455H388.321V414H366.537ZM377.48 325.33C374.241 325.33 371.463 324.256 369.145 322.108C366.861 319.926 365.719 317.318 365.719 314.284C365.719 311.284 366.861 308.71 369.145 306.562C371.463 304.381 374.241 303.29 377.48 303.29C380.719 303.29 383.48 304.381 385.764 306.562C388.082 308.71 389.241 311.284 389.241 314.284C389.241 317.318 388.082 319.926 385.764 322.108C383.48 324.256 380.719 325.33 377.48 325.33ZM448.01 335.455V351.818H399.533V335.455H448.01ZM410.629 414V329.778C410.629 324.085 411.737 319.364 413.953 315.614C416.203 311.864 419.271 309.051 423.158 307.176C427.044 305.301 431.459 304.364 436.402 304.364C439.743 304.364 442.794 304.619 445.555 305.131C448.351 305.642 450.43 306.102 451.794 306.511L447.908 322.875C447.055 322.602 445.999 322.347 444.737 322.108C443.51 321.869 442.249 321.75 440.953 321.75C437.749 321.75 435.516 322.5 434.254 324C432.993 325.466 432.362 327.528 432.362 330.188V414H410.629ZM503.097 335.455V351.818H455.795V335.455H503.097ZM466.534 316.636H488.318V389.864C488.318 391.875 488.625 393.443 489.239 394.568C489.852 395.659 490.705 396.426 491.795 396.869C492.92 397.312 494.216 397.534 495.682 397.534C496.705 397.534 497.727 397.449 498.75 397.278C499.773 397.074 500.557 396.92 501.102 396.818L504.528 413.028C503.438 413.369 501.903 413.761 499.926 414.205C497.949 414.682 495.545 414.972 492.716 415.074C487.466 415.278 482.864 414.58 478.909 412.977C474.989 411.375 471.938 408.886 469.756 405.511C467.574 402.136 466.5 397.875 466.534 392.727V316.636Z" fill="white"/>
<path d="M519.384 414V309.273H588.724V327.528H541.526V352.483H584.122V370.739H541.526V414H519.384ZM632.932 415.534C624.989 415.534 618.119 413.847 612.324 410.472C606.563 407.062 602.114 402.324 598.977 396.256C595.841 390.153 594.273 383.08 594.273 375.034C594.273 366.92 595.841 359.83 598.977 353.761C602.114 347.659 606.563 342.92 612.324 339.545C618.119 336.136 624.989 334.432 632.932 334.432C640.875 334.432 647.727 336.136 653.489 339.545C659.284 342.92 663.75 347.659 666.886 353.761C670.023 359.83 671.591 366.92 671.591 375.034C671.591 383.08 670.023 390.153 666.886 396.256C663.75 402.324 659.284 407.062 653.489 410.472C647.727 413.847 640.875 415.534 632.932 415.534ZM633.034 398.659C636.648 398.659 639.665 397.636 642.085 395.591C644.506 393.511 646.33 390.682 647.557 387.102C648.818 383.523 649.449 379.449 649.449 374.881C649.449 370.312 648.818 366.239 647.557 362.659C646.33 359.08 644.506 356.25 642.085 354.17C639.665 352.091 636.648 351.051 633.034 351.051C629.386 351.051 626.318 352.091 623.83 354.17C621.375 356.25 619.517 359.08 618.256 362.659C617.028 366.239 616.415 370.312 616.415 374.881C616.415 379.449 617.028 383.523 618.256 387.102C619.517 390.682 621.375 393.511 623.83 395.591C626.318 397.636 629.386 398.659 633.034 398.659ZM707.54 309.273V414H685.756V309.273H707.54ZM724.99 414V335.455H746.774V414H724.99ZM735.933 325.33C732.695 325.33 729.916 324.256 727.598 322.108C725.314 319.926 724.172 317.318 724.172 314.284C724.172 311.284 725.314 308.71 727.598 306.562C729.916 304.381 732.695 303.29 735.933 303.29C739.172 303.29 741.933 304.381 744.217 306.562C746.536 308.71 747.695 311.284 747.695 314.284C747.695 317.318 746.536 319.926 744.217 322.108C741.933 324.256 739.172 325.33 735.933 325.33ZM799.713 415.534C791.77 415.534 784.901 413.847 779.105 410.472C773.344 407.062 768.895 402.324 765.759 396.256C762.622 390.153 761.054 383.08 761.054 375.034C761.054 366.92 762.622 359.83 765.759 353.761C768.895 347.659 773.344 342.92 779.105 339.545C784.901 336.136 791.77 334.432 799.713 334.432C807.656 334.432 814.509 336.136 820.27 339.545C826.065 342.92 830.531 347.659 833.668 353.761C836.804 359.83 838.372 366.92 838.372 375.034C838.372 383.08 836.804 390.153 833.668 396.256C830.531 402.324 826.065 407.062 820.27 410.472C814.509 413.847 807.656 415.534 799.713 415.534ZM799.815 398.659C803.429 398.659 806.446 397.636 808.866 395.591C811.287 393.511 813.111 390.682 814.338 387.102C815.599 383.523 816.23 379.449 816.23 374.881C816.23 370.312 815.599 366.239 814.338 362.659C813.111 359.08 811.287 356.25 808.866 354.17C806.446 352.091 803.429 351.051 799.815 351.051C796.168 351.051 793.099 352.091 790.611 354.17C788.156 356.25 786.298 359.08 785.037 362.659C783.81 366.239 783.196 370.312 783.196 374.881C783.196 379.449 783.81 383.523 785.037 387.102C786.298 390.682 788.156 393.511 790.611 395.591C793.099 397.636 796.168 398.659 799.815 398.659Z" fill="#696969"/>
</svg>
