<svg width="4396" height="1523" viewBox="0 0 4396 1523" fill="none" xmlns="http://www.w3.org/2000/svg">
<rect width="4396" height="1523" fill="white"/>
<rect x="428" y="404" width="716" height="716" rx="93" fill="#6F00C6"/>
<path d="M952.5 971.25L871.922 938.894C886.535 906.955 896.973 873.973 903.444 840.364L952.5 971.25ZM699.077 938.894L618.5 971.25L667.556 840.364C674.027 873.973 684.465 906.955 699.077 938.894ZM785.5 553.75C785.5 553.75 889.875 595.5 889.875 762.5C889.875 827.212 874.219 882.531 855.014 925.951C848.125 940.981 833.304 950.375 816.812 950.375H754.188C737.696 950.375 722.875 940.981 715.986 925.951C696.99 882.531 681.125 827.212 681.125 762.5C681.125 595.5 785.5 553.75 785.5 553.75ZM785.5 762.5C808.462 762.5 827.25 743.712 827.25 720.75C827.25 697.788 808.462 679 785.5 679C762.538 679 743.75 697.788 743.75 720.75C743.75 743.712 762.538 762.5 785.5 762.5Z" fill="white"/>
<path d="M1427.74 959.864C1382.48 959.864 1345.31 949.192 1316.24 927.848C1287.17 906.136 1271.53 875.224 1269.32 835.112H1384.69C1385.79 848.728 1389.84 858.664 1396.83 864.92C1403.82 871.176 1412.84 874.304 1423.88 874.304C1433.82 874.304 1441.91 871.912 1448.17 867.128C1454.79 861.976 1458.1 854.984 1458.1 846.152C1458.1 834.744 1452.77 825.912 1442.1 819.656C1431.42 813.4 1414.13 806.408 1390.21 798.68C1364.82 790.216 1344.21 782.12 1328.38 774.392C1312.93 766.296 1299.31 754.704 1287.54 739.616C1276.13 724.16 1270.42 704.104 1270.42 679.448C1270.42 654.424 1276.68 633.08 1289.19 615.416C1301.7 597.384 1319 583.768 1341.08 574.568C1363.16 565.368 1388.18 560.768 1416.15 560.768C1461.42 560.768 1497.48 571.44 1524.34 592.784C1551.58 613.76 1566.11 643.384 1567.95 681.656H1450.38C1450.01 669.88 1446.33 661.048 1439.34 655.16C1432.71 649.272 1424.06 646.328 1413.39 646.328C1405.3 646.328 1398.67 648.72 1393.52 653.504C1388.37 658.288 1385.79 665.096 1385.79 673.928C1385.79 681.288 1388.55 687.728 1394.07 693.248C1399.96 698.4 1407.14 703 1415.6 707.048C1424.06 710.728 1436.58 715.512 1453.14 721.4C1477.79 729.864 1498.03 738.328 1513.86 746.792C1530.05 754.888 1543.85 766.48 1555.26 781.568C1567.03 796.288 1572.92 815.056 1572.92 837.872C1572.92 861.056 1567.03 881.848 1555.26 900.248C1543.85 918.648 1527.1 933.184 1505.02 943.856C1483.31 954.528 1457.55 959.864 1427.74 959.864Z" fill="url(#paint0_linear_50_2)"/>
<path d="M2080.82 646.328L2001.89 956H1880.45L1837.39 768.32L1792.68 956H1671.79L1593.41 646.328H1701.05L1735.82 851.672L1781.64 646.328H1897.56L1945.03 852.224L1979.26 646.328H2080.82Z" fill="url(#paint1_linear_50_2)"/>
<path d="M2166.26 617.624C2147.12 617.624 2131.66 612.472 2119.89 602.168C2108.48 591.496 2102.78 578.248 2102.78 562.424C2102.78 546.232 2108.48 532.8 2119.89 522.128C2131.66 511.456 2147.12 506.12 2166.26 506.12C2185.02 506.12 2200.11 511.456 2211.52 522.128C2223.3 532.8 2229.18 546.232 2229.18 562.424C2229.18 578.248 2223.3 591.496 2211.52 602.168C2200.11 612.472 2185.02 617.624 2166.26 617.624ZM2219.8 646.328V956H2111.61V646.328H2219.8Z" fill="url(#paint2_linear_50_2)"/>
<path d="M2448.67 736.304H2400.09V956H2291.35V736.304H2257.68V646.328H2291.35V643.568C2291.35 603.824 2302.94 573.464 2326.12 552.488C2349.68 531.144 2383.35 520.472 2427.14 520.472C2435.97 520.472 2442.78 520.656 2447.56 521.024L2555.5 513.5C2552.56 513.132 2392 654.5 2392 654.5C2380.22 654.5 2415 615.416 2409.48 620.936C2403.96 626.088 2400.83 634.552 2400.09 646.328H2448.67V736.304Z" fill="url(#paint3_linear_50_2)"/>
<path d="M2670.05 863.816V956H2623.13C2544.01 956 2504.45 916.808 2504.45 838.424V736.304H2466.36V646.328H2504.45V571.256H2613.19V646.328H2669.49V736.304H2613.19V840.08C2613.19 848.544 2615.03 854.616 2618.71 858.296C2622.76 861.976 2629.38 863.816 2638.58 863.816H2670.05Z" fill="url(#paint4_linear_50_2)"/>
<path d="M2983.53 566.84V652.952H2827.86V721.4H2942.68V803.648H2827.86V956H2719.67V566.84H2983.53Z" fill="url(#paint5_linear_50_2)"/>
<path d="M3173.16 959.864C3142.25 959.864 3114.47 953.424 3089.81 940.544C3065.52 927.664 3046.39 909.264 3032.4 885.344C3018.42 861.424 3011.43 833.272 3011.43 800.888C3011.43 768.872 3018.42 740.904 3032.4 716.984C3046.76 693.064 3066.08 674.664 3090.36 661.784C3115.02 648.904 3142.8 642.464 3173.72 642.464C3204.63 642.464 3232.23 648.904 3256.52 661.784C3281.17 674.664 3300.49 693.064 3314.48 716.984C3328.83 740.904 3336 768.872 3336 800.888C3336 832.904 3328.83 861.056 3314.48 885.344C3300.49 909.264 3281.17 927.664 3256.52 940.544C3231.86 953.424 3204.08 959.864 3173.16 959.864ZM3173.16 866.024C3188.25 866.024 3200.76 860.504 3210.7 849.464C3221 838.056 3226.16 821.864 3226.16 800.888C3226.16 779.912 3221 763.904 3210.7 752.864C3200.76 741.824 3181.72 885.344 3167 885.344C3152.28 885.344 3146.67 741.824 3136.73 752.864C3126.8 763.904 3121.83 779.912 3121.83 800.888C3121.83 822.232 3126.61 838.424 3136.18 849.464C3145.75 860.504 3158.08 866.024 3173.16 866.024Z" fill="url(#paint6_linear_50_2)"/>
<path d="M3488.21 547.52V956H3380.02V547.52H3488.21Z" fill="url(#paint7_linear_50_2)"/>
<path d="M3604.47 617.624C3585.34 617.624 3569.88 612.472 3558.11 602.168C3546.7 591.496 3540.99 578.248 3540.99 562.424C3540.99 546.232 3546.7 532.8 3558.11 522.128C3569.88 511.456 3585.34 506.12 3604.47 506.12C3623.24 506.12 3638.33 511.456 3649.74 522.128C3661.51 532.8 3667.4 546.232 3667.4 562.424C3667.4 578.248 3661.51 591.496 3649.74 602.168C3638.33 612.472 3623.24 617.624 3604.47 617.624ZM3658.02 646.328V956H3549.83V646.328H3658.02Z" fill="url(#paint8_linear_50_2)"/>
<path d="M3863.7 959.864C3832.79 959.864 3805.01 953.424 3780.35 940.544C3756.06 927.664 3736.93 909.264 3722.94 885.344C3708.96 861.424 3701.97 833.272 3701.97 800.888C3701.97 768.872 3708.96 740.904 3722.94 716.984C3737.29 693.064 3756.61 674.664 3780.9 661.784C3805.56 648.904 3833.34 642.464 3864.25 642.464C3895.17 642.464 3922.77 648.904 3947.05 661.784C3971.71 674.664 3991.03 693.064 4005.01 716.984C4019.37 740.904 4026.54 768.872 4026.54 800.888C4026.54 832.904 4019.37 861.056 4005.01 885.344C3991.03 909.264 3971.71 927.664 3947.05 940.544C3922.4 953.424 3894.61 959.864 3863.7 959.864ZM3863.7 866.024C3878.79 866.024 3891.3 860.504 3901.24 849.464C3911.54 838.056 3916.69 821.864 3916.69 800.888C3916.69 779.912 3911.54 763.904 3901.24 752.864C3891.3 741.824 3878.97 736.304 3864.25 736.304C3849.53 736.304 3837.21 741.824 3827.27 752.864C3817.33 763.904 3812.37 779.912 3812.37 800.888C3812.37 822.232 3817.15 838.424 3826.72 849.464C3836.29 860.504 3848.61 866.024 3863.7 866.024Z" fill="url(#paint9_linear_50_2)"/>
<defs>
<linearGradient id="paint0_linear_50_2" x1="1250" y1="763" x2="4040" y2="763" gradientUnits="userSpaceOnUse">
<stop stop-color="#6F00C6"/>
<stop offset="1" stop-color="#E5C4FF"/>
</linearGradient>
<linearGradient id="paint1_linear_50_2" x1="1250" y1="763" x2="4040" y2="763" gradientUnits="userSpaceOnUse">
<stop stop-color="#6F00C6"/>
<stop offset="1" stop-color="#E5C4FF"/>
</linearGradient>
<linearGradient id="paint2_linear_50_2" x1="1250" y1="763" x2="4040" y2="763" gradientUnits="userSpaceOnUse">
<stop stop-color="#6F00C6"/>
<stop offset="1" stop-color="#E5C4FF"/>
</linearGradient>
<linearGradient id="paint3_linear_50_2" x1="1250" y1="763" x2="4040" y2="763" gradientUnits="userSpaceOnUse">
<stop stop-color="#6F00C6"/>
<stop offset="1" stop-color="#E5C4FF"/>
</linearGradient>
<linearGradient id="paint4_linear_50_2" x1="1250" y1="763" x2="4040" y2="763" gradientUnits="userSpaceOnUse">
<stop stop-color="#6F00C6"/>
<stop offset="1" stop-color="#E5C4FF"/>
</linearGradient>
<linearGradient id="paint5_linear_50_2" x1="1250" y1="763" x2="4040" y2="763" gradientUnits="userSpaceOnUse">
<stop stop-color="#6F00C6"/>
<stop offset="1" stop-color="#E5C4FF"/>
</linearGradient>
<linearGradient id="paint6_linear_50_2" x1="1250" y1="763" x2="4040" y2="763" gradientUnits="userSpaceOnUse">
<stop stop-color="#6F00C6"/>
<stop offset="1" stop-color="#E5C4FF"/>
</linearGradient>
<linearGradient id="paint7_linear_50_2" x1="1250" y1="763" x2="4040" y2="763" gradientUnits="userSpaceOnUse">
<stop stop-color="#6F00C6"/>
<stop offset="1" stop-color="#E5C4FF"/>
</linearGradient>
<linearGradient id="paint8_linear_50_2" x1="1250" y1="763" x2="4040" y2="763" gradientUnits="userSpaceOnUse">
<stop stop-color="#6F00C6"/>
<stop offset="1" stop-color="#E5C4FF"/>
</linearGradient>
<linearGradient id="paint9_linear_50_2" x1="1250" y1="763" x2="4040" y2="763" gradientUnits="userSpaceOnUse">
<stop stop-color="#6F00C6"/>
<stop offset="1" stop-color="#E5C4FF"/>
</linearGradient>
</defs>
</svg>
