<svg width="4396" height="1523" viewBox="0 0 4396 1523" fill="none" xmlns="http://www.w3.org/2000/svg">
<rect width="4396" height="1523" fill="white"/>
<path d="M3466.29 559.906L3938.41 714.678L4038.62 1130L4268 394L3466.29 559.906Z" fill="#9816FF"/>
<path d="M479.826 733.645C481.27 713.253 475.856 697.462 463.585 686.273C451.493 675.084 432.364 669.49 406.197 669.49C388.872 669.49 374.074 671.746 361.802 676.257C349.53 680.588 339.876 686.724 332.837 694.665C325.799 702.425 321.378 711.448 319.573 721.734C317.949 729.855 318.4 737.074 320.927 743.39C323.453 749.707 327.875 755.301 334.191 760.174C340.688 765.046 348.718 769.287 358.283 772.896C368.028 776.506 378.946 779.664 391.038 782.371L436.515 793.199C462.863 799.154 485.692 807.095 505.001 817.02C524.492 826.765 540.282 838.586 552.374 852.482C564.465 866.197 572.766 881.988 577.278 899.854C581.789 917.72 582.15 937.752 578.361 959.949C572.586 994.959 558.78 1025.01 536.944 1050.09C515.288 1075.18 486.955 1094.4 451.945 1107.75C417.115 1121.1 376.6 1127.78 330.401 1127.78C284.202 1127.78 244.951 1120.83 212.648 1106.94C180.525 1092.86 157.245 1071.66 142.807 1043.32C128.37 1014.99 124.49 979.259 131.167 936.127H259.208C257.222 953.993 259.478 968.882 265.975 980.793C272.652 992.703 282.939 1001.73 296.835 1007.86C310.73 1014 327.514 1017.07 347.184 1017.07C365.231 1017.07 381.022 1014.63 394.557 1009.76C408.272 1004.88 419.19 998.117 427.311 989.455C435.612 980.793 440.666 970.867 442.47 959.678C444.275 949.392 442.56 940.458 437.327 932.879C432.274 925.299 423.612 918.712 411.34 913.118C399.249 907.524 383.368 902.471 363.697 897.959L308.204 884.424C262.366 873.235 227.626 855.369 203.985 830.826C180.525 806.282 172.223 772.987 179.081 730.938C184.856 696.469 199.113 666.332 221.851 640.525C244.77 614.718 273.735 594.687 308.745 580.43C343.936 565.993 382.646 558.774 424.875 558.774C467.826 558.774 503.919 566.083 533.154 580.701C562.57 595.138 583.775 615.531 596.768 641.879C609.942 668.046 613.732 698.635 608.137 733.645H479.826Z" fill="#9816FF"/>
<path d="M697.197 1120.74L658.216 704.951H791.129L802.769 971.318H806.288L910.778 704.951H1040.44L1057.77 969.423H1061.29L1160.09 704.951H1293L1115.15 1120.74H973.58L948.676 878.469H944.074L839.043 1120.74H697.197Z" fill="#9816FF"/>
<path d="M1276.83 1120.74L1346.13 704.951H1478.5L1409.2 1120.74H1276.83ZM1421.65 656.226C1402.88 656.226 1387.63 649.999 1375.9 637.547C1364.17 625.095 1359.57 610.207 1362.1 592.882C1364.63 575.377 1373.47 560.489 1388.63 548.217C1403.79 535.945 1420.66 529.81 1439.25 529.81C1458.02 529.81 1473.09 535.945 1484.45 548.217C1496 560.489 1500.52 575.377 1497.99 592.882C1495.82 610.207 1487.16 625.095 1472 637.547C1457.02 649.999 1440.24 656.226 1421.65 656.226Z" fill="#9816FF"/>
<path d="M1799.61 704.951L1783.1 802.402H1515.65L1532.17 704.951H1799.61ZM1518.09 1120.74L1591.18 683.837C1596.41 651.714 1606.79 625.095 1622.31 603.981C1637.83 582.686 1657.23 566.805 1680.51 556.338C1703.79 545.69 1729.41 540.367 1757.39 540.367C1775.97 540.367 1793.21 541.81 1809.09 544.698C1824.97 547.405 1836.52 549.841 1843.74 552.007L1807.19 648.917C1802.32 647.293 1796.55 645.939 1789.87 644.856C1783.37 643.773 1776.97 643.232 1770.65 643.232C1755.31 643.232 1744.21 646.661 1737.35 653.519C1730.5 660.376 1725.98 669.76 1723.82 681.671L1650.46 1120.74H1518.09Z" fill="#9816FF"/>
<path d="M2098.19 704.951L2081.68 802.402H1819.38L1835.89 704.951H2098.19ZM1907.08 605.334H2039.45L1975.57 989.996C1974.31 998.117 1974.49 1004.7 1976.11 1009.76C1977.91 1014.63 1981.16 1018.15 1985.86 1020.31C1990.73 1022.3 1996.68 1023.29 2003.72 1023.29C2008.59 1023.29 2014.01 1022.75 2019.96 1021.67C2025.92 1020.59 2030.43 1019.77 2033.5 1019.23L2037.83 1114.79C2030.79 1116.77 2021.32 1119.03 2009.41 1121.56C1997.68 1124.26 1983.96 1125.98 1968.26 1126.7C1936.5 1127.96 1910.24 1124.26 1889.49 1115.6C1868.91 1106.76 1854.39 1093.04 1845.9 1074.45C1837.6 1055.87 1835.98 1032.59 1841.03 1004.61L1907.08 605.334Z" fill="#9816FF"/>
<path d="M2105.37 1120.74L2197.41 566.354H2575.84L2557.43 675.174H2312.99L2294.59 788.868H2514.93L2496.53 897.959H2276.18L2239.36 1120.74H2105.37Z" fill="#9816FF"/>
<path d="M2714.57 1128.59C2670.72 1128.59 2634.54 1119.57 2606.02 1101.52C2577.69 1083.48 2557.75 1058.3 2546.2 1026C2534.65 993.696 2532.39 956.159 2539.43 913.389C2546.47 870.799 2561 833.443 2583.01 801.32C2605.03 769.197 2633.18 744.202 2667.47 726.336C2701.76 708.47 2740.65 699.537 2784.14 699.537C2827.82 699.537 2863.82 708.561 2892.15 726.607C2920.67 744.654 2940.7 769.829 2952.25 802.132C2963.98 834.435 2966.32 872.062 2959.29 915.013C2952.25 957.603 2937.63 994.959 2915.43 1027.08C2893.24 1059.02 2865.08 1083.93 2830.97 1101.79C2796.87 1119.66 2758.07 1128.59 2714.57 1128.59ZM2729.46 1028.71C2745.7 1028.71 2760.23 1023.83 2773.04 1014.09C2786.04 1004.34 2796.96 990.718 2805.8 973.213C2814.64 955.708 2820.96 935.405 2824.75 912.306C2828.54 889.567 2828.9 869.626 2825.83 852.482C2822.94 835.157 2816.81 821.712 2807.42 812.148C2798.04 802.403 2785.32 797.53 2769.26 797.53C2753.01 797.53 2738.4 802.493 2725.4 812.418C2712.41 822.163 2701.49 835.789 2692.65 853.294C2683.99 870.618 2677.76 890.921 2673.97 914.201C2670.18 936.939 2669.73 956.881 2672.62 974.025C2675.5 991.169 2681.73 1004.61 2691.29 1014.36C2700.86 1023.92 2713.58 1028.71 2729.46 1028.71Z" fill="#9816FF"/>
<path d="M3217.13 566.354L3125.09 1120.74H2992.72L3084.75 566.354H3217.13Z" fill="#9816FF"/>
<path d="M3209.34 1120.74L3278.64 704.951H3411.01L3341.71 1120.74H3209.34ZM3354.17 656.226C3335.4 656.226 3320.15 649.999 3308.42 637.547C3296.69 625.095 3292.09 610.207 3294.61 592.882C3297.14 575.377 3305.98 560.489 3321.14 548.217C3336.3 535.945 3353.17 529.81 3371.76 529.81C3390.53 529.81 3405.6 535.945 3416.97 548.217C3428.52 560.489 3433.03 575.377 3430.5 592.882C3428.34 610.207 3419.68 625.095 3404.52 637.547C3389.54 649.999 3372.75 656.226 3354.17 656.226Z" fill="#9816FF"/>
<path d="M3619.79 1128.59C3575.94 1128.59 3539.75 1119.57 3511.24 1101.52C3482.91 1083.48 3462.96 1058.3 3451.41 1026C3439.86 993.696 3437.61 956.159 3444.65 913.389C3451.69 870.799 3466.21 833.443 3488.23 801.32C3510.25 769.197 3538.4 744.202 3572.69 726.336C3606.98 708.47 3645.87 699.537 3689.36 699.537C3733.03 699.537 3769.03 708.561 3797.37 726.607C3825.88 744.654 3845.91 769.829 3857.46 802.132C3869.19 834.435 3871.54 872.062 3864.5 915.013C3857.46 957.603 3842.84 994.959 3820.65 1027.08C3798.45 1059.02 3770.3 1083.93 3736.19 1101.79C3702.08 1119.66 3663.28 1128.59 3619.79 1128.59ZM3634.68 1028.71C3650.92 1028.71 3665.45 1023.83 3678.26 1014.09C3691.25 1004.34 3702.17 990.718 3711.01 973.213C3719.86 955.708 3726.17 935.405 3729.96 912.306C3733.75 889.567 3734.11 869.626 3731.05 852.482C3728.16 835.157 3722.02 821.712 3712.64 812.148C3703.25 802.403 3690.53 797.53 3674.47 797.53C3658.23 797.53 3643.61 802.493 3630.62 812.418C3617.62 822.163 3606.7 835.789 3597.86 853.294C3589.2 870.618 3582.97 890.921 3579.18 914.201C3575.39 936.939 3574.94 956.881 3577.83 974.025C3580.72 991.169 3586.94 1004.61 3596.51 1014.36C3606.07 1023.92 3618.8 1028.71 3634.68 1028.71Z" fill="#9816FF"/>
</svg>
