<svg width="1606" height="1099" viewBox="0 0 1606 1099" fill="none" xmlns="http://www.w3.org/2000/svg">
<rect width="1606" height="1099" fill="white"/>
<line x1="192.25" y1="1.09278e-08" x2="192.25" y2="1082" stroke="#DFDFDF" stroke-width="0.5"/>
<line x1="252.25" y1="1.09278e-08" x2="252.25" y2="1082" stroke="#DFDFDF" stroke-width="0.5"/>
<line x1="392.25" y1="1.09278e-08" x2="392.25" y2="1082" stroke="#DFDFDF" stroke-width="0.5"/>
<line x1="452.25" y1="1.09278e-08" x2="452.25" y2="1082" stroke="#DFDFDF" stroke-width="0.5"/>
<line x1="592.25" y1="1.09278e-08" x2="592.25" y2="1082" stroke="#DFDFDF" stroke-width="0.5"/>
<line x1="652.25" y1="1.09278e-08" x2="652.25" y2="1082" stroke="#DFDFDF" stroke-width="0.5"/>
<line x1="782.25" y1="1.09278e-08" x2="782.25" y2="1082" stroke="#DFDFDF" stroke-width="0.5"/>
<line x1="842.25" y1="1.09278e-08" x2="842.25" y2="1082" stroke="#DFDFDF" stroke-width="0.5"/>
<line x1="982.25" y1="1.09278e-08" x2="982.25" y2="1082" stroke="#DFDFDF" stroke-width="0.5"/>
<line x1="1042.25" y1="1.09278e-08" x2="1042.25" y2="1082" stroke="#DFDFDF" stroke-width="0.5"/>
<line x1="1182.25" y1="1.09278e-08" x2="1182.25" y2="1082" stroke="#DFDFDF" stroke-width="0.5"/>
<line x1="1242.25" y1="1.09278e-08" x2="1242.25" y2="1082" stroke="#DFDFDF" stroke-width="0.5"/>
<line x1="1372.25" y1="1.09278e-08" x2="1372.25" y2="1082" stroke="#DFDFDF" stroke-width="0.5"/>
<line x1="1432.25" y1="1.09278e-08" x2="1432.25" y2="1082" stroke="#DFDFDF" stroke-width="0.5"/>
</svg>
